<?xml version="1.0" encoding="UTF-8" standalone="no"?>
<!-- Created with Inkscape (http://www.inkscape.org/) -->

<svg
   xmlns:dc="http://purl.org/dc/elements/1.1/"
   xmlns:cc="http://creativecommons.org/ns#"
   xmlns:rdf="http://www.w3.org/1999/02/22-rdf-syntax-ns#"
   xmlns:svg="http://www.w3.org/2000/svg"
   xmlns="http://www.w3.org/2000/svg"
   xmlns:sodipodi="http://sodipodi.sourceforge.net/DTD/sodipodi-0.dtd"
   xmlns:inkscape="http://www.inkscape.org/namespaces/inkscape"
   width="349.83905mm"
   height="34.456059mm"
   viewBox="0 0 349.83905 34.456059"
   version="1.1"
   id="svg330"
   inkscape:version="0.92.0 r15299"
   sodipodi:docname="edreams odigeo.svg">
  <defs
     id="defs324">
    <clipPath
       id="clipPath204"
       clipPathUnits="userSpaceOnUse">
      <path
         inkscape:connector-curvature="0"
         id="path202"
         d="M 0,341.176 H 1275.59 V 0 H 0 Z" />
    </clipPath>
  </defs>
  <sodipodi:namedview
     id="base"
     pagecolor="#ffffff"
     bordercolor="#666666"
     borderopacity="1.0"
     inkscape:pageopacity="0.0"
     inkscape:pageshadow="2"
     inkscape:zoom="0.35"
     inkscape:cx="657.33364"
     inkscape:cy="61.334274"
     inkscape:document-units="mm"
     inkscape:current-layer="layer1"
     showgrid="false"
     fit-margin-top="0"
     fit-margin-left="0"
     fit-margin-right="0"
     fit-margin-bottom="0"
     inkscape:window-width="1280"
     inkscape:window-height="744"
     inkscape:window-x="-4"
     inkscape:window-y="-4"
     inkscape:window-maximized="1" />
  <metadata
     id="metadata327">
    <rdf:RDF>
      <cc:Work
         rdf:about="">
        <dc:format>image/svg+xml</dc:format>
        <dc:type
           rdf:resource="http://purl.org/dc/dcmitype/StillImage" />
        <dc:title></dc:title>
      </cc:Work>
    </rdf:RDF>
  </metadata>
  <g
     inkscape:label="Layer 1"
     inkscape:groupmode="layer"
     id="layer1"
     transform="translate(161.44631,-130.6053)">
    <g
       transform="translate(-310.83036,-149.16668)"
       id="g499">
      <path
         d="m 156.04754,299.99181 h 7.59601 c 1.7526,0 1.97732,-1.40582 1.97732,-2.58374 0,-2.35727 -0.98884,-3.26355 -4.35998,-3.26355 -3.81988,0 -5.03379,1.17792 -5.21335,5.84729 m 13.93331,8.1594 0.49424,3.53554 c -2.33715,1.13277 -6.29214,1.49577 -9.07909,1.49577 -7.99994,0 -11.01195,-3.2639 -11.01195,-11.69564 0,-8.79298 3.19158,-11.69423 10.65212,-11.69423 7.14693,0 10.02348,2.67441 10.02348,7.70573 0,3.9885 -1.79811,6.34682 -5.88822,6.34682 h -8.98878 c 0.44944,4.03366 2.11208,4.84999 5.88751,4.84999 2.11279,0 5.25886,-0.22684 7.91069,-0.54398"
         style="fill:#01acfb;fill-opacity:1;fill-rule:nonzero;stroke:none;stroke-width:0.35277778"
         id="path208"
         inkscape:connector-curvature="0" />
      <path
         d="m 194.74267,296.9999 c 0,-8.61236 -1.61784,-11.33228 -6.74194,-11.33228 -2.29199,0 -4.17935,0.0459 -5.97711,0.0459 v 22.48288 c 1.7526,0.0448 3.73027,0.0907 5.97711,0.0907 5.1241,0 6.74194,-2.6744 6.74194,-11.28712 m 5.93302,0 c 0,12.23927 -3.37185,16.04645 -12.67496,16.04645 -4.49474,0 -8.17985,-0.18098 -11.59545,-0.40781 v -31.27693 c 3.4156,-0.22648 7.05626,-0.40781 11.59545,-0.40781 9.30311,0 12.67496,3.80718 12.67496,16.0461"
         style="fill:#01acfb;fill-opacity:1;fill-rule:nonzero;stroke:none;stroke-width:0.35277778"
         id="path212"
         inkscape:connector-curvature="0" />
      <path
         d="m 220.4927,294.95989 h -1.57268 c -2.11244,0 -4.13562,0.72496 -7.28134,1.9498 v 15.7286 h -5.48322 v -22.21054 h 4.26967 l 0.49459,3.26355 c 3.01131,-2.49343 6.20254,-3.89855 9.07874,-3.89855 h 1.07879 z"
         style="fill:#01acfb;fill-opacity:1;fill-rule:nonzero;stroke:none;stroke-width:0.35277778"
         id="path216"
         inkscape:connector-curvature="0" />
      <path
         d="m 229.03034,299.99181 h 7.59601 c 1.7526,0 1.97732,-1.40582 1.97732,-2.58374 0,-2.35727 -0.98884,-3.26355 -4.35998,-3.26355 -3.81988,0 -5.03379,1.17792 -5.21335,5.84729 m 13.93296,8.1594 0.49459,3.53554 c -2.33715,1.13277 -6.29214,1.49577 -9.07909,1.49577 -7.99994,0 -11.01125,-3.2639 -11.01125,-11.69564 0,-8.79298 3.19088,-11.69423 10.65142,-11.69423 7.14657,0 10.02277,2.67441 10.02277,7.70573 0,3.9885 -1.7974,6.34682 -5.88751,6.34682 h -8.98878 c 0.44944,4.03366 2.11279,4.84999 5.88716,4.84999 2.11314,0 5.25921,-0.22684 7.91069,-0.54398"
         style="fill:#01acfb;fill-opacity:1;fill-rule:nonzero;stroke:none;stroke-width:0.35277778"
         id="path220"
         inkscape:connector-curvature="0" />
      <path
         d="m 253.2981,305.97523 c 0,1.90359 0.89888,2.71992 2.8762,2.71992 1.70815,0 4.18041,-0.72531 6.47241,-2.62926 v -3.44558 h -7.01146 c -1.79775,0.0914 -2.33715,0.99801 -2.33715,2.49308 z m 14.83184,-8.43139 v 15.09466 h -4.31448 l -0.5842,-3.35386 c -1.57303,1.72191 -4.44994,3.85198 -8.40493,3.85198 -4.0453,0 -6.967,-2.26589 -6.967,-6.43608 v -2.2666 c 0,-3.53553 2.3823,-5.57565 6.51756,-5.57565 h 8.26982 v -1.3596 c -0.0451,-2.53895 -0.89923,-3.17324 -4.04565,-3.17324 -2.02177,0 -5.7524,0.18168 -9.2128,0.45402 l -0.53939,-3.8989 c 3.14572,-0.58949 8.08954,-1.08796 11.01125,-1.08796 5.43807,0 8.26982,1.81292 8.26982,7.75123"
         style="fill:#01acfb;fill-opacity:1;fill-rule:nonzero;stroke:none;stroke-width:0.35277778"
         id="path224"
         inkscape:connector-curvature="0" />
      <path
         d="m 307.4092,295.95744 v 16.6811 h -5.34846 V 297.6349 c -0.0452,-2.26695 -0.67381,-3.17324 -2.74144,-3.17324 -1.84256,0 -3.05647,0.68016 -5.93266,2.67406 v 15.50282 h -5.25851 V 297.6349 c 0.0452,-2.40242 -0.85478,-3.17324 -2.74214,-3.17324 -1.7078,0 -2.92135,0.63465 -5.88716,2.62925 v 15.54763 h -5.43842 V 290.428 h 4.44924 l 0.35948,3.2632 c 2.83174,-2.53824 5.52802,-3.89855 8.5852,-3.89855 2.96615,0 4.85351,1.26929 5.61763,3.71687 2.74143,-2.49309 5.43807,-3.71687 8.35977,-3.71687 3.91055,0 5.97747,2.17593 5.97747,6.16479"
         style="fill:#01acfb;fill-opacity:1;fill-rule:nonzero;stroke:none;stroke-width:0.35277778"
         id="path228"
         inkscape:connector-curvature="0" />
      <path
         d="m 331.00189,290.60841 -0.40428,3.80824 c -2.78695,-0.091 -5.61834,-0.18168 -8.40529,-0.18168 -3.68547,0 -4.67395,0.0448 -4.67395,1.90358 0,1.76777 0.94403,1.81363 3.01096,2.40242 l 5.93302,1.63195 c 3.64031,1.04281 5.2585,2.49308 5.2585,6.39128 0,5.43912 -2.96615,6.5726 -9.84285,6.5726 -1.48308,0 -5.21335,-0.0455 -9.2135,-0.72496 l 0.35913,-3.85269 c 1.75295,0.13618 4.67466,0.18098 7.5057,0.18098 4.6743,0 5.93302,-0.36266 5.93302,-2.13043 0,-1.67675 -1.16876,-1.81327 -3.23639,-2.40241 l -5.7979,-1.5868 c -3.90984,-1.13312 -5.16855,-2.99155 -5.16855,-6.52709 0,-4.8955 2.51707,-6.30061 8.98949,-6.30061 3.0106,0.0455 7.0559,0.36265 9.75289,0.81562"
         style="fill:#01acfb;fill-opacity:1;fill-rule:nonzero;stroke:none;stroke-width:0.35277778"
         id="path232"
         inkscape:connector-curvature="0" />
      <path
         d="m 351.7624,296.9999 c 0,8.70338 1.61784,11.37744 6.83119,11.37744 5.25921,0 6.8767,-2.67406 6.8767,-11.37744 0,-8.70338 -1.61749,-11.37744 -6.8767,-11.37744 -5.21335,0 -6.83119,2.67406 -6.83119,11.37744 m 19.64126,0 c 0,12.4206 -3.32635,16.22813 -12.81007,16.22813 -9.43822,0 -12.76385,-3.80753 -12.76385,-16.22813 0,-12.42025 3.32563,-16.22778 12.76385,-16.22778 9.48372,0 12.81007,3.80753 12.81007,16.22778"
         style="fill:#01acfb;fill-opacity:1;fill-rule:nonzero;stroke:none;stroke-width:0.35277778"
         id="path236"
         inkscape:connector-curvature="0" />
      <path
         d="m 395.57987,296.9999 c 0,-8.61236 -1.61749,-11.33228 -6.74123,-11.33228 -2.292,0 -4.18006,0.0459 -5.97782,0.0459 v 22.48288 c 1.75295,0.0448 3.73063,0.0907 5.97782,0.0907 5.12374,0 6.74123,-2.6744 6.74123,-11.28712 m 5.93337,0 c 0,12.23927 -3.37079,16.04645 -12.6746,16.04645 -4.49474,0 -8.17986,-0.18098 -11.59581,-0.40781 v -31.27693 c 3.41595,-0.22648 7.05591,-0.40781 11.59581,-0.40781 9.30381,0 12.6746,3.80718 12.6746,16.0461"
         style="fill:#01acfb;fill-opacity:1;fill-rule:nonzero;stroke:none;stroke-width:0.35277778"
         id="path240"
         inkscape:connector-curvature="0" />
      <path
         inkscape:connector-curvature="0"
         id="path242"
         style="fill:#01acfb;fill-opacity:1;fill-rule:nonzero;stroke:none;stroke-width:0.35277778"
         d="m 407.39768,281.36151 h 5.61869 v 31.27692 h -5.61869 z" />
      <path
         d="m 442.36321,312.63839 h -4.18006 l -0.4946,-3.08257 c -1.66264,1.58679 -4.76426,3.67206 -9.07873,3.67206 -6.8767,0 -9.70845,-5.07682 -9.70845,-16.3636 0,-12.51126 3.55177,-16.09231 13.57418,-16.09231 3.10022,0 6.15739,0.27164 8.89918,1.04282 l -0.45015,4.21569 c -2.921,-0.18098 -6.06778,-0.27199 -8.1795,-0.27199 -5.88751,0 -7.95585,1.22308 -7.95585,11.42259 0,8.38588 1.39383,11.1513 5.57354,11.1513 2.60703,0 4.6288,-0.9973 6.51686,-2.17593 v -11.55912 h 5.48358 z"
         style="fill:#01acfb;fill-opacity:1;fill-rule:nonzero;stroke:none;stroke-width:0.35277778"
         id="path246"
         inkscape:connector-curvature="0" />
      <path
         d="m 468.5177,312.36623 c -4.09011,0.36266 -9.12354,0.36266 -13.66308,0.36266 -4.09046,0 -6.60718,-2.26625 -6.65163,-5.93796 v -19.58234 c 0.0444,-3.67101 2.60597,-5.9376 6.65163,-5.9376 4.53954,0 9.57297,0 13.66308,0.3623 l -0.26952,4.35187 h -12.1352 c -1.61855,0 -2.24685,0.6798 -2.24685,2.6289 v 5.48463 h 12.7187 v 4.35187 h -12.7187 v 6.98076 c 0,1.9491 0.6283,2.62855 2.24685,2.62855 h 12.1352 z"
         style="fill:#01acfb;fill-opacity:1;fill-rule:nonzero;stroke:none;stroke-width:0.35277778"
         id="path250"
         inkscape:connector-curvature="0" />
      <path
         d="m 478.5822,296.9999 c 0,8.70338 1.61854,11.37744 6.83154,11.37744 5.25886,0 6.8774,-2.67406 6.8774,-11.37744 0,-8.70338 -1.61854,-11.37744 -6.8774,-11.37744 -5.213,0 -6.83154,2.67406 -6.83154,11.37744 m 19.6409,0 c 0,12.4206 -3.32599,16.22813 -12.80936,16.22813 -9.43751,0 -12.7635,-3.80753 -12.7635,-16.22813 0,-12.42025 3.32599,-16.22778 12.7635,-16.22778 9.48337,0 12.80936,3.80753 12.80936,16.22778"
         style="fill:#01acfb;fill-opacity:1;fill-rule:nonzero;stroke:none;stroke-width:0.35277778"
         id="path254"
         inkscape:connector-curvature="0" />
    </g>
  </g>
</svg>
