<?xml version="1.0" encoding="utf-8"?>
<!-- Generator: Adobe Illustrator 26.5.0, SVG Export Plug-In . SVG Version: 6.00 Build 0)  -->
<svg version="1.1" id="Calque_1" xmlns="http://www.w3.org/2000/svg" xmlns:xlink="http://www.w3.org/1999/xlink" x="0px" y="0px"
	 viewBox="0 0 481.9 184.3" style="enable-background:new 0 0 481.9 184.3;" xml:space="preserve">
<style type="text/css">
	.st0{fill:#FFCD00;}
	.st1{fill:#FF6F00;}
	.st2{fill:#FFA200;}
	.st3{fill:#FF4A0A;}
	.st4{fill:#FF060F;}
</style>
<g>
	<g>
		<rect x="24.1" y="16.3" class="st0" width="28.3" height="28.3"/>
		<rect x="137.5" y="16.3" class="st0" width="28.3" height="28.3"/>
	</g>
	<g>
		<rect x="52.4" y="73" class="st1" width="28.3" height="28.3"/>
		<rect x="80.8" y="73" class="st1" width="28.3" height="28.3"/>
		<rect x="109.1" y="73" class="st1" width="28.3" height="28.3"/>
		<rect x="24.1" y="73" class="st1" width="28.3" height="28.3"/>
		<rect x="137.5" y="73" class="st1" width="28.3" height="28.3"/>
	</g>
	<g>
		<rect x="52.4" y="44.6" class="st2" width="28.3" height="28.3"/>
		<rect x="109.1" y="44.6" class="st2" width="28.3" height="28.3"/>
		<rect x="24.1" y="44.6" class="st2" width="28.3" height="28.3"/>
		<rect x="137.5" y="44.6" class="st2" width="28.3" height="28.3"/>
	</g>
	<g>
		<rect x="80.8" y="101.3" class="st3" width="28.3" height="28.3"/>
		<rect x="24.1" y="101.3" class="st3" width="28.3" height="28.3"/>
		<rect x="137.5" y="101.3" class="st3" width="28.3" height="28.3"/>
	</g>
	<g>
		<rect x="24.1" y="129.7" class="st4" width="28.3" height="28.3"/>
		<rect x="137.5" y="129.7" class="st4" width="28.3" height="28.3"/>
	</g>
	<g>
		<g>
			<rect x="9.9" y="16.3" width="14.2" height="28.3"/>
			<rect x="123.3" y="16.3" width="14.2" height="28.3"/>
			<rect x="9.9" y="73" width="14.2" height="28.3"/>
			<rect x="95" y="44.6" width="14.2" height="28.3"/>
			<rect x="9.9" y="44.6" width="14.2" height="28.3"/>
			<rect x="66.6" y="101.3" width="14.2" height="28.3"/>
			<rect x="9.9" y="101.3" width="14.2" height="28.3"/>
			<rect x="123.3" y="101.3" width="14.2" height="28.3"/>
			<rect x="9.9" y="129.7" width="14.2" height="28.3"/>
			<rect x="123.3" y="129.7" width="14.2" height="28.3"/>
		</g>
		<g>
			<g>
				<path d="M197.5,44.6h10.4l4.3,15.5l1.5,6.1h0.3l1.5-6.1l4.3-15.5H230v43.8h-8.4V74.9c0-4.9,0.9-15.6,1.3-20.3h-0.2l-3.4,11.7
					L216,76.8h-4.8l-3.5-10.5l-3.1-11.7h-0.2c0.5,4.7,1.3,15.4,1.3,20.3v13.6h-8.2V44.6z"/>
				<path d="M238.9,80.1h10.2V53h-10.2v-8.3h30.4V53H259v27.2h10.2v8.3h-30.4V80.1z"/>
				<path d="M277.6,82.9l5.7-6.8c3.3,2.7,7.4,4.6,11.6,4.6c4.2,0,6.1-1.6,6.1-3.8c0-3.2-2.6-3.9-6.7-5.6l-5.7-2.4
					c-4.8-1.8-9.3-5.6-9.3-11.9c0-7.3,6.5-13,16-13c5.3,0,10.6,2,14.5,5.7l-5,6.2c-3.1-2.2-5.8-3.4-10.1-3.4c-3.3,0-5.5,1.4-5.5,3.9
					c0,2.6,2.9,3.6,7.1,5.2l5.4,2.3c5.7,2.1,9.4,5.7,9.4,11.9c0,7.3-6.1,13.6-16.9,13.6C288.4,89.2,282.2,87.1,277.6,82.9z"/>
				<path d="M329.7,53h-13.1v-8.3h36.2V53h-13.1v35.5h-9.9V53z"/>
				<path d="M394.1,88.4l-9.9-17.5c4.7-2.1,7.8-6.2,7.8-12.6c0-10.4-7.6-13.6-16.9-13.6h-15.6v43.8h9.9V72.7h5.2l8.4,15.7H394.1z
					 M369.4,52.5h4.8c5.2,0,8,1.5,8,5.8c0,4.3-2.8,6.5-8,6.5h-4.8V52.5z"/>
				<path d="M424.4,88.4h10.5l-13.6-43.8h-11.9l-13.6,43.8h10.1l2.7-10.4h13.2L424.4,88.4z M410.5,70.3l1-4
					c1.1-4.4,2.3-9.5,3.4-14.1h0.3c1.1,4.6,2.4,9.7,3.5,14.1l1,4H410.5z"/>
				<path d="M442.6,44.6h9.9v35.5H472v8.3h-29.4V44.6z"/>
			</g>
			<g>
				<path d="M222.8,158h10.5l-13.6-43.8h-11.9L194.2,158h10.1l2.7-10.4h13.2L222.8,158z M209,139.9l1-4c1.1-4.4,2.3-9.5,3.4-14.1
					h0.3c1.1,4.6,2.4,9.7,3.5,14.1l1,4H209z"/>
				<path d="M238.9,149.7h10.2v-27.2h-10.2v-8.3h30.4v8.3H259v27.2h10.2v8.3h-30.4V149.7z"/>
			</g>
			<path d="M278.2,160.5h32.2v7.4h-32.2V160.5z"/>
		</g>
	</g>
</g>
</svg>
