<svg width="926" height="243" viewBox="0 0 926 243" fill="none" xmlns="http://www.w3.org/2000/svg">
<path d="M88.9442 125.331L0 86.9927V74.725L88.9442 36.3867V53.7676L23.4625 80.8588L88.9442 107.951V125.331Z" fill="black"/>
<path d="M151.609 30.7609V41.8352H151.947C154.416 37.1487 157.616 33.7213 161.548 31.5516C165.479 29.3845 169.97 28.3003 175.024 28.3003C182.436 28.3003 188.134 30.41 192.122 34.6294C196.108 38.8474 198.103 45.7023 198.103 55.1953V125.33H174.855V60.1166C174.855 55.1953 174.069 51.7678 172.497 49.833C170.923 47.9007 168.396 46.9326 164.916 46.9326C156.718 46.9326 152.621 52.1488 152.621 62.5772V125.329H129.373V30.7609H151.609Z" fill="black"/>
<path d="M224.246 56.0513C225.503 49.9635 227.563 44.8809 230.426 40.801C233.285 36.7237 237.035 33.6235 241.667 31.4966C246.302 29.3723 251.991 28.3094 258.746 28.3094C265.838 28.1956 271.73 29.1433 276.424 31.1538C281.115 33.1644 284.835 36.2364 287.58 40.3713C290.325 44.5062 292.271 49.6194 293.416 55.7073C294.557 61.7977 295.132 68.9189 295.132 77.0735C295.132 84.9992 294.503 92.0079 293.244 98.0957C291.984 104.186 289.925 109.269 287.065 113.345C284.204 117.423 280.457 120.439 275.824 122.391C271.191 124.342 265.496 125.321 258.747 125.321C251.651 125.433 245.759 124.546 241.068 122.649C236.374 120.754 232.658 117.769 229.911 113.689C227.166 109.613 225.218 104.499 224.075 98.3541C222.931 92.21 222.359 85.1143 222.359 77.0735C222.359 69.1465 222.986 62.1404 224.246 56.0513ZM246.388 90.1675C246.616 94.1898 247.159 97.6366 248.018 100.505C248.876 103.378 250.163 105.619 251.879 107.226C253.596 108.836 255.884 109.638 258.746 109.638C263.55 109.638 266.868 107.112 268.699 102.057C270.528 97.0035 271.446 88.6749 271.446 77.0722C271.446 65.4708 270.527 57.1435 268.699 52.0878C266.867 47.0347 263.55 44.5049 258.746 44.5049C255.884 44.5049 253.596 45.3106 251.879 46.9183C250.162 48.5285 248.876 50.7679 248.018 53.6392C247.159 56.5104 246.615 59.9572 246.388 63.977C246.157 67.9993 246.044 72.3631 246.044 77.0722C246.046 81.7839 246.158 86.1477 246.388 90.1675Z" fill="black"/>
<path d="M342.017 30.7609V43.4163H342.361C344.762 38.8473 347.676 35.1851 351.104 32.4309C354.532 29.6793 358.705 28.3003 363.62 28.3003C364.305 28.3003 365.018 28.3303 365.763 28.3877C366.505 28.449 367.221 28.5364 367.906 28.6513V51.8549C366.647 51.7388 365.421 51.6514 364.221 51.5914C363.021 51.534 361.79 51.504 360.536 51.504C358.478 51.504 356.42 51.7975 354.363 52.3833C352.305 52.9704 350.418 53.9372 348.706 55.2836C346.99 56.6326 345.62 58.39 344.592 60.5571C343.562 62.7268 343.048 65.3909 343.048 68.5548V125.33H319.391V30.7609H342.017Z" fill="black"/>
<path d="M406.704 30.7609V43.4163H407.049C409.448 38.8473 412.362 35.1851 415.79 32.4309C419.22 29.6793 423.391 28.3003 428.305 28.3003C428.991 28.3003 429.705 28.3303 430.449 28.3877C431.191 28.449 431.907 28.5364 432.593 28.6513V51.8549C431.335 51.7388 430.107 51.6514 428.907 51.5914C427.708 51.534 426.479 51.504 425.222 51.504C423.166 51.504 421.108 51.7975 419.05 52.3833C416.993 52.9704 415.107 53.9372 413.393 55.2836C411.679 56.6326 410.307 58.39 409.279 60.5571C408.25 62.7268 407.736 65.3909 407.736 68.5548V125.33H384.078V30.7609H406.704Z" fill="black"/>
<path d="M474.215 96.2029C474.215 100.227 475.277 103.471 477.409 105.94C479.538 108.413 482.615 109.645 486.647 109.645C490.328 109.645 493.267 108.726 495.454 106.888C497.641 105.05 498.736 102.293 498.736 98.6155C498.736 95.6286 497.871 93.3593 496.146 91.8076C494.421 90.2572 492.403 89.0228 490.105 88.103L473.352 82.0716C466.791 79.7728 461.84 76.5288 458.501 72.333C455.162 68.1423 453.494 62.7684 453.494 56.2202C453.494 52.4273 454.125 48.8379 455.392 45.448C456.658 42.0607 458.674 39.1006 461.437 36.5729C464.199 34.0465 467.739 32.0356 472.057 30.5415C476.374 29.0486 481.582 28.3003 487.682 28.3003C498.501 28.3003 506.505 30.6003 511.686 35.1952C516.868 39.7914 519.458 46.2833 519.458 54.6698V58.4613H498.046C498.046 53.6375 497.27 50.103 495.714 47.8631C494.162 45.622 491.425 44.5014 487.515 44.5014C484.517 44.5014 481.9 45.3354 479.655 47.001C477.41 48.6678 476.287 51.1673 476.287 54.4971C476.287 56.7971 477.006 58.8656 478.447 60.7025C479.885 62.542 482.617 64.0911 486.648 65.355L500.981 70.1801C508.467 72.7091 513.761 76.0133 516.869 80.0901C519.977 84.1695 521.534 89.7135 521.534 96.721C521.534 101.663 520.669 105.942 518.944 109.56C517.212 113.179 514.825 116.197 511.778 118.608C508.726 121.021 505.096 122.744 500.897 123.779C496.695 124.814 492.062 125.33 486.996 125.33C480.318 125.33 474.763 124.697 470.332 123.435C465.899 122.172 462.388 120.275 459.798 117.747C457.207 115.221 455.394 112.147 454.358 108.528C453.323 104.908 452.805 100.858 452.805 96.3769V93.1021H474.217L474.215 96.2029Z" fill="black"/>
<path d="M565.1 66.1759H565.441L588.96 30.8939H614.673L588.447 68.1067L618.567 125.331H592.846L573.392 86.5386L565.1 97.772V125.331H541.752V0H565.1V66.1759Z" fill="black"/>
<path d="M655.129 88.1022C655.129 90.8602 655.337 93.5311 655.752 96.1163C656.162 98.7016 656.841 101.002 657.786 103.011C658.733 105.022 659.971 106.63 661.503 107.835C663.037 109.043 664.926 109.645 667.169 109.645C671.301 109.645 674.309 108.21 676.199 105.337C678.089 102.466 679.386 98.0991 680.095 92.2391H702.051C701.579 103.041 698.629 111.255 693.201 116.884C687.772 122.515 679.213 125.33 667.527 125.33C658.676 125.33 651.766 123.891 646.81 121.021C641.853 118.152 638.187 114.359 635.83 109.646C633.467 104.936 632.021 99.652 631.49 93.7908C630.959 87.9295 630.695 82.0721 630.695 76.2122C630.695 70.0069 631.14 64.0343 632.021 58.2882C632.909 52.5447 634.678 47.4318 637.335 42.9508C639.991 38.4685 643.801 34.9098 648.756 32.2645C653.712 29.623 660.323 28.3003 668.587 28.3003C675.67 28.3003 681.483 29.4209 686.03 31.662C690.571 33.9018 694.144 37.064 696.743 41.1395C699.337 45.2188 701.105 50.1603 702.05 55.9614C702.996 61.7638 703.468 68.2262 703.468 75.3487V80.6919H655.129V88.1022ZM679.386 57.1677C679.034 54.4712 678.413 52.1712 677.531 50.2741C676.644 48.3784 675.404 46.9431 673.814 45.9658C672.217 44.9898 670.183 44.4999 667.707 44.4999C665.221 44.4999 663.188 45.0474 661.593 46.1373C660.001 47.2297 658.734 48.6662 657.788 50.4456C656.843 52.2287 656.163 54.2102 655.753 56.3912C655.339 58.5748 655.13 60.7584 655.13 62.9394V66.5582H680.095C679.979 63.0008 679.743 59.8693 679.386 57.1677Z" fill="black"/>
<path d="M745.921 30.7609V41.8352H746.255C748.73 37.1487 751.924 33.7213 755.862 31.5516C759.788 29.3845 764.283 28.3003 769.338 28.3003C776.75 28.3003 782.445 30.41 786.433 34.6294C790.419 38.8474 792.413 45.7023 792.413 55.1953V125.33H769.168V60.1166C769.168 55.1953 768.378 51.7678 766.81 49.833C765.235 47.9007 762.708 46.9326 759.227 46.9326C751.03 46.9326 746.93 52.1488 746.93 62.5772V125.329H723.684V30.7609H745.921Z" fill="black"/>
<path d="M902.369 80.8588L836.885 53.7676V36.3867L925.829 74.725V86.9927L836.885 125.331V107.951L902.369 80.8588Z" fill="black"/>
<path d="M176.691 170.188H184.121V187.07H203.44V170.188H210.871V212.631H203.44V193.49H184.121V212.631H176.691V170.188ZM232.905 213.463C230.448 213.463 228.249 213.067 226.307 212.274C224.405 211.442 222.78 210.313 221.433 208.886C220.125 207.459 219.114 205.755 218.401 203.774C217.727 201.792 217.39 199.613 217.39 197.235C217.39 194.897 217.727 192.737 218.401 190.756C219.114 188.774 220.125 187.07 221.433 185.644C222.78 184.217 224.405 183.107 226.307 182.315C228.249 181.483 230.448 181.067 232.905 181.067C235.362 181.067 237.542 181.483 239.444 182.315C241.386 183.107 243.01 184.217 244.318 185.644C245.666 187.07 246.676 188.774 247.35 190.756C248.063 192.737 248.42 194.897 248.42 197.235C248.42 199.613 248.063 201.792 247.35 203.774C246.676 205.755 245.666 207.459 244.318 208.886C243.01 210.313 241.386 211.442 239.444 212.274C237.542 213.067 235.362 213.463 232.905 213.463ZM232.905 208.113C234.411 208.113 235.719 207.796 236.828 207.162C237.938 206.528 238.849 205.696 239.563 204.665C240.276 203.635 240.791 202.486 241.108 201.218C241.465 199.91 241.643 198.582 241.643 197.235C241.643 195.927 241.465 194.62 241.108 193.312C240.791 192.004 240.276 190.855 239.563 189.864C238.849 188.834 237.938 188.002 236.828 187.368C235.719 186.733 234.411 186.416 232.905 186.416C231.399 186.416 230.091 186.733 228.982 187.368C227.872 188.002 226.961 188.834 226.247 189.864C225.534 190.855 224.999 192.004 224.642 193.312C224.325 194.62 224.167 195.927 224.167 197.235C224.167 198.582 224.325 199.91 224.642 201.218C224.999 202.486 225.534 203.635 226.247 204.665C226.961 205.696 227.872 206.528 228.982 207.162C230.091 207.796 231.399 208.113 232.905 208.113ZM281.041 212.631H274.383V208.351H274.264C273.432 209.896 272.183 211.145 270.519 212.096C268.894 213.007 267.23 213.463 265.526 213.463C261.484 213.463 258.551 212.472 256.728 210.491C254.945 208.47 254.053 205.438 254.053 201.396V181.899H260.83V200.742C260.83 203.437 261.345 205.339 262.375 206.449C263.406 207.558 264.852 208.113 266.715 208.113C268.141 208.113 269.33 207.895 270.281 207.459C271.232 207.023 272.005 206.449 272.6 205.735C273.194 204.983 273.61 204.091 273.848 203.061C274.125 202.03 274.264 200.921 274.264 199.732V181.899H281.041V212.631ZM293.299 202.763C293.497 204.745 294.25 206.132 295.558 206.924C296.865 207.717 298.431 208.113 300.254 208.113C300.888 208.113 301.601 208.074 302.394 207.994C303.226 207.875 303.999 207.677 304.712 207.4C305.425 207.122 306 206.726 306.436 206.211C306.911 205.656 307.129 204.943 307.09 204.071C307.05 203.199 306.733 202.486 306.139 201.931C305.544 201.376 304.771 200.94 303.82 200.623C302.909 200.267 301.859 199.969 300.67 199.732C299.481 199.494 298.272 199.236 297.044 198.959C295.776 198.682 294.547 198.345 293.358 197.948C292.209 197.552 291.159 197.017 290.208 196.343C289.296 195.67 288.563 194.818 288.008 193.787C287.454 192.717 287.176 191.41 287.176 189.864C287.176 188.2 287.572 186.813 288.365 185.703C289.197 184.554 290.228 183.642 291.456 182.969C292.724 182.255 294.111 181.76 295.617 181.483C297.163 181.205 298.629 181.067 300.016 181.067C301.601 181.067 303.107 181.245 304.534 181.602C306 181.919 307.308 182.454 308.457 183.207C309.646 183.959 310.617 184.95 311.37 186.179C312.162 187.368 312.657 188.814 312.856 190.518H305.782C305.465 188.893 304.712 187.803 303.523 187.249C302.374 186.694 301.046 186.416 299.54 186.416C299.065 186.416 298.49 186.456 297.816 186.535C297.182 186.615 296.568 186.773 295.974 187.011C295.419 187.209 294.943 187.526 294.547 187.962C294.151 188.358 293.953 188.893 293.953 189.567C293.953 190.399 294.23 191.073 294.785 191.588C295.379 192.103 296.132 192.539 297.044 192.896C297.995 193.213 299.065 193.49 300.254 193.728C301.443 193.966 302.671 194.223 303.939 194.501C305.168 194.778 306.376 195.115 307.565 195.511C308.754 195.908 309.804 196.443 310.716 197.116C311.667 197.79 312.42 198.642 312.974 199.672C313.569 200.703 313.866 201.971 313.866 203.477C313.866 205.3 313.45 206.845 312.618 208.113C311.786 209.381 310.696 210.412 309.348 211.204C308.041 211.997 306.574 212.571 304.95 212.928C303.325 213.285 301.72 213.463 300.135 213.463C298.193 213.463 296.39 213.245 294.725 212.809C293.101 212.373 291.674 211.719 290.446 210.848C289.257 209.936 288.306 208.827 287.592 207.519C286.919 206.171 286.562 204.586 286.522 202.763H293.299ZM340.114 194.56C340.034 193.49 339.796 192.46 339.4 191.469C339.044 190.478 338.528 189.626 337.855 188.913C337.221 188.16 336.428 187.566 335.477 187.13C334.565 186.654 333.535 186.416 332.386 186.416C331.197 186.416 330.107 186.634 329.117 187.07C328.165 187.467 327.333 188.041 326.62 188.794C325.946 189.507 325.391 190.36 324.956 191.35C324.559 192.341 324.341 193.411 324.302 194.56H340.114ZM324.302 199.018C324.302 200.207 324.46 201.356 324.777 202.466C325.134 203.576 325.649 204.547 326.323 205.379C326.996 206.211 327.848 206.885 328.879 207.4C329.909 207.875 331.138 208.113 332.564 208.113C334.546 208.113 336.131 207.697 337.32 206.865C338.548 205.993 339.46 204.705 340.054 203.001H346.474C346.117 204.665 345.503 206.152 344.631 207.459C343.759 208.767 342.709 209.877 341.481 210.788C340.252 211.66 338.865 212.314 337.32 212.75C335.814 213.225 334.229 213.463 332.564 213.463C330.147 213.463 328.007 213.067 326.144 212.274C324.282 211.482 322.697 210.372 321.389 208.945C320.121 207.519 319.15 205.815 318.476 203.833C317.842 201.852 317.525 199.672 317.525 197.295C317.525 195.115 317.862 193.054 318.536 191.112C319.249 189.131 320.24 187.407 321.508 185.941C322.816 184.435 324.381 183.246 326.204 182.374C328.027 181.502 330.087 181.067 332.386 181.067C334.803 181.067 336.963 181.582 338.865 182.612C340.807 183.603 342.412 184.93 343.68 186.595C344.948 188.259 345.86 190.181 346.414 192.361C347.009 194.501 347.167 196.72 346.89 199.018H324.302ZM376.967 187.962H389.094C390.877 187.962 392.363 187.467 393.552 186.476C394.741 185.446 395.335 183.979 395.335 182.077C395.335 179.937 394.8 178.431 393.73 177.559C392.66 176.688 391.115 176.252 389.094 176.252H376.967V187.962ZM369.537 170.188H390.164C393.968 170.188 397.019 171.06 399.318 172.804C401.616 174.548 402.766 177.183 402.766 180.71C402.766 182.85 402.231 184.693 401.161 186.238C400.13 187.744 398.644 188.913 396.702 189.745V189.864C399.318 190.419 401.299 191.667 402.647 193.609C403.994 195.511 404.668 197.909 404.668 200.802C404.668 202.466 404.371 204.031 403.776 205.498C403.182 206.924 402.25 208.173 400.982 209.243C399.714 210.273 398.089 211.105 396.108 211.739C394.127 212.334 391.769 212.631 389.034 212.631H369.537V170.188ZM376.967 206.568H390.104C392.363 206.568 394.107 205.993 395.335 204.844C396.603 203.655 397.237 201.991 397.237 199.851C397.237 197.75 396.603 196.145 395.335 195.036C394.107 193.886 392.363 193.312 390.104 193.312H376.967V206.568ZM436.179 205.795C436.179 206.627 436.278 207.222 436.476 207.578C436.714 207.935 437.15 208.113 437.784 208.113C437.982 208.113 438.22 208.113 438.497 208.113C438.774 208.113 439.091 208.074 439.448 207.994V212.69C439.21 212.77 438.893 212.849 438.497 212.928C438.14 213.047 437.764 213.146 437.368 213.225C436.971 213.305 436.575 213.364 436.179 213.404C435.782 213.443 435.446 213.463 435.168 213.463C433.781 213.463 432.632 213.186 431.72 212.631C430.809 212.076 430.215 211.105 429.937 209.718C428.59 211.026 426.925 211.977 424.944 212.571C423.002 213.166 421.12 213.463 419.297 213.463C417.91 213.463 416.582 213.265 415.314 212.869C414.046 212.512 412.917 211.977 411.926 211.264C410.975 210.511 410.202 209.579 409.608 208.47C409.053 207.321 408.775 205.993 408.775 204.487C408.775 202.585 409.112 201.039 409.786 199.851C410.499 198.662 411.411 197.73 412.52 197.057C413.67 196.383 414.938 195.908 416.325 195.63C417.751 195.313 419.178 195.075 420.605 194.917C421.833 194.679 423.002 194.521 424.112 194.441C425.221 194.322 426.192 194.144 427.024 193.906C427.896 193.669 428.57 193.312 429.045 192.836C429.561 192.321 429.818 191.568 429.818 190.577C429.818 189.706 429.6 188.992 429.164 188.438C428.768 187.883 428.253 187.467 427.619 187.189C427.024 186.872 426.351 186.674 425.598 186.595C424.845 186.476 424.132 186.416 423.458 186.416C421.556 186.416 419.99 186.813 418.762 187.605C417.533 188.398 416.84 189.626 416.681 191.291H409.905C410.024 189.309 410.499 187.665 411.331 186.357C412.164 185.049 413.214 183.999 414.482 183.207C415.79 182.414 417.256 181.859 418.881 181.542C420.506 181.225 422.17 181.067 423.874 181.067C425.38 181.067 426.866 181.225 428.332 181.542C429.798 181.859 431.106 182.374 432.255 183.088C433.444 183.801 434.395 184.732 435.109 185.881C435.822 186.991 436.179 188.358 436.179 189.983V205.795ZM429.402 197.235C428.372 197.909 427.104 198.325 425.598 198.483C424.092 198.602 422.586 198.8 421.08 199.078C420.367 199.197 419.673 199.375 419 199.613C418.326 199.811 417.731 200.108 417.216 200.504C416.701 200.861 416.285 201.356 415.968 201.991C415.691 202.585 415.552 203.318 415.552 204.19C415.552 204.943 415.77 205.577 416.206 206.092C416.642 206.607 417.157 207.023 417.751 207.34C418.385 207.618 419.059 207.816 419.772 207.935C420.525 208.054 421.199 208.113 421.793 208.113C422.546 208.113 423.359 208.014 424.231 207.816C425.102 207.618 425.915 207.281 426.668 206.805C427.46 206.33 428.114 205.735 428.629 205.022C429.145 204.269 429.402 203.358 429.402 202.288V197.235ZM443.47 181.899H449.831V187.843H449.95C450.148 187.011 450.524 186.198 451.079 185.406C451.673 184.613 452.367 183.9 453.159 183.266C453.992 182.592 454.903 182.057 455.894 181.661C456.885 181.265 457.895 181.067 458.925 181.067C459.718 181.067 460.253 181.086 460.53 181.126C460.847 181.166 461.164 181.205 461.481 181.245V187.784C461.006 187.704 460.511 187.645 459.995 187.605C459.52 187.526 459.044 187.486 458.569 187.486C457.42 187.486 456.33 187.724 455.299 188.2C454.309 188.636 453.437 189.309 452.684 190.221C451.931 191.093 451.337 192.182 450.901 193.49C450.465 194.798 450.247 196.304 450.247 198.008V212.631H443.47V181.899ZM484.069 192.182C483.792 190.28 483.019 188.854 481.751 187.903C480.522 186.912 478.957 186.416 477.055 186.416C476.183 186.416 475.252 186.575 474.261 186.892C473.27 187.169 472.359 187.724 471.526 188.556C470.694 189.349 470.001 190.478 469.446 191.945C468.891 193.371 468.614 195.254 468.614 197.592C468.614 198.86 468.752 200.128 469.03 201.396C469.347 202.664 469.822 203.794 470.456 204.784C471.13 205.775 471.982 206.587 473.012 207.222C474.043 207.816 475.291 208.113 476.757 208.113C478.739 208.113 480.364 207.499 481.632 206.27C482.939 205.042 483.752 203.318 484.069 201.099H490.845C490.211 205.101 488.686 208.173 486.268 210.313C483.891 212.413 480.72 213.463 476.757 213.463C474.34 213.463 472.2 213.067 470.338 212.274C468.515 211.442 466.969 210.332 465.701 208.945C464.433 207.519 463.462 205.835 462.788 203.893C462.154 201.951 461.837 199.851 461.837 197.592C461.837 195.293 462.154 193.134 462.788 191.112C463.422 189.091 464.373 187.348 465.642 185.881C466.91 184.376 468.475 183.207 470.338 182.374C472.24 181.502 474.459 181.067 476.995 181.067C478.778 181.067 480.463 181.304 482.048 181.78C483.673 182.216 485.099 182.889 486.328 183.801C487.596 184.712 488.626 185.862 489.419 187.249C490.211 188.636 490.687 190.28 490.845 192.182H484.069ZM517.456 194.56C517.377 193.49 517.139 192.46 516.743 191.469C516.386 190.478 515.871 189.626 515.197 188.913C514.563 188.16 513.77 187.566 512.819 187.13C511.908 186.654 510.878 186.416 509.728 186.416C508.54 186.416 507.45 186.634 506.459 187.07C505.508 187.467 504.676 188.041 503.962 188.794C503.289 189.507 502.734 190.36 502.298 191.35C501.902 192.341 501.684 193.411 501.644 194.56H517.456ZM501.644 199.018C501.644 200.207 501.803 201.356 502.12 202.466C502.476 203.576 502.991 204.547 503.665 205.379C504.339 206.211 505.191 206.885 506.221 207.4C507.252 207.875 508.48 208.113 509.907 208.113C511.888 208.113 513.473 207.697 514.662 206.865C515.891 205.993 516.802 204.705 517.397 203.001H523.816C523.46 204.665 522.845 206.152 521.974 207.459C521.102 208.767 520.052 209.877 518.823 210.788C517.595 211.66 516.208 212.314 514.662 212.75C513.156 213.225 511.571 213.463 509.907 213.463C507.489 213.463 505.349 213.067 503.487 212.274C501.624 211.482 500.039 210.372 498.731 208.945C497.463 207.519 496.492 205.815 495.819 203.833C495.185 201.852 494.868 199.672 494.868 197.295C494.868 195.115 495.204 193.054 495.878 191.112C496.591 189.131 497.582 187.407 498.85 185.941C500.158 184.435 501.723 183.246 503.546 182.374C505.369 181.502 507.43 181.067 509.728 181.067C512.146 181.067 514.305 181.582 516.208 182.612C518.149 183.603 519.754 184.93 521.023 186.595C522.291 188.259 523.202 190.181 523.757 192.361C524.351 194.501 524.51 196.72 524.232 199.018H501.644ZM529.562 170.188H536.339V212.631H529.562V170.188ZM557.81 213.463C555.353 213.463 553.154 213.067 551.212 212.274C549.31 211.442 547.685 210.313 546.338 208.886C545.03 207.459 544.02 205.755 543.306 203.774C542.633 201.792 542.296 199.613 542.296 197.235C542.296 194.897 542.633 192.737 543.306 190.756C544.02 188.774 545.03 187.07 546.338 185.644C547.685 184.217 549.31 183.107 551.212 182.315C553.154 181.483 555.353 181.067 557.81 181.067C560.267 181.067 562.447 181.483 564.349 182.315C566.291 183.107 567.916 184.217 569.224 185.644C570.571 187.07 571.581 188.774 572.255 190.756C572.968 192.737 573.325 194.897 573.325 197.235C573.325 199.613 572.968 201.792 572.255 203.774C571.581 205.755 570.571 207.459 569.224 208.886C567.916 210.313 566.291 211.442 564.349 212.274C562.447 213.067 560.267 213.463 557.81 213.463ZM557.81 208.113C559.316 208.113 560.624 207.796 561.734 207.162C562.843 206.528 563.755 205.696 564.468 204.665C565.181 203.635 565.697 202.486 566.014 201.218C566.37 199.91 566.549 198.582 566.549 197.235C566.549 195.927 566.37 194.62 566.014 193.312C565.697 192.004 565.181 190.855 564.468 189.864C563.755 188.834 562.843 188.002 561.734 187.368C560.624 186.733 559.316 186.416 557.81 186.416C556.305 186.416 554.997 186.733 553.887 187.368C552.778 188.002 551.866 188.834 551.153 189.864C550.439 190.855 549.904 192.004 549.548 193.312C549.231 194.62 549.072 195.927 549.072 197.235C549.072 198.582 549.231 199.91 549.548 201.218C549.904 202.486 550.439 203.635 551.153 204.665C551.866 205.696 552.778 206.528 553.887 207.162C554.997 207.796 556.305 208.113 557.81 208.113ZM578.959 181.899H585.379V186.416L585.497 186.535C586.528 184.831 587.875 183.504 589.54 182.553C591.204 181.562 593.047 181.067 595.068 181.067C598.436 181.067 601.091 181.938 603.033 183.682C604.975 185.426 605.946 188.041 605.946 191.529V212.631H599.169V193.312C599.09 190.894 598.575 189.151 597.624 188.081C596.673 186.971 595.187 186.416 593.166 186.416C592.016 186.416 590.986 186.634 590.075 187.07C589.163 187.467 588.39 188.041 587.756 188.794C587.122 189.507 586.627 190.36 586.27 191.35C585.914 192.341 585.735 193.391 585.735 194.501V212.631H578.959V181.899ZM638.831 205.795C638.831 206.627 638.93 207.222 639.128 207.578C639.366 207.935 639.802 208.113 640.436 208.113C640.634 208.113 640.872 208.113 641.149 208.113C641.427 208.113 641.744 208.074 642.1 207.994V212.69C641.863 212.77 641.545 212.849 641.149 212.928C640.793 213.047 640.416 213.146 640.02 213.225C639.623 213.305 639.227 213.364 638.831 213.404C638.435 213.443 638.098 213.463 637.82 213.463C636.433 213.463 635.284 213.186 634.373 212.631C633.461 212.076 632.867 211.105 632.589 209.718C631.242 211.026 629.578 211.977 627.596 212.571C625.654 213.166 623.772 213.463 621.949 213.463C620.562 213.463 619.234 213.265 617.966 212.869C616.698 212.512 615.569 211.977 614.578 211.264C613.627 210.511 612.854 209.579 612.26 208.47C611.705 207.321 611.428 205.993 611.428 204.487C611.428 202.585 611.764 201.039 612.438 199.851C613.151 198.662 614.063 197.73 615.173 197.057C616.322 196.383 617.59 195.908 618.977 195.63C620.404 195.313 621.83 195.075 623.257 194.917C624.485 194.679 625.654 194.521 626.764 194.441C627.874 194.322 628.844 194.144 629.677 193.906C630.549 193.669 631.222 193.312 631.698 192.836C632.213 192.321 632.47 191.568 632.47 190.577C632.47 189.706 632.253 188.992 631.817 188.438C631.42 187.883 630.905 187.467 630.271 187.189C629.677 186.872 629.003 186.674 628.25 186.595C627.497 186.476 626.784 186.416 626.11 186.416C624.208 186.416 622.643 186.813 621.414 187.605C620.186 188.398 619.492 189.626 619.334 191.291H612.557C612.676 189.309 613.151 187.665 613.984 186.357C614.816 185.049 615.866 183.999 617.134 183.207C618.442 182.414 619.908 181.859 621.533 181.542C623.158 181.225 624.822 181.067 626.526 181.067C628.032 181.067 629.518 181.225 630.984 181.542C632.451 181.859 633.758 182.374 634.908 183.088C636.097 183.801 637.048 184.732 637.761 185.881C638.474 186.991 638.831 188.358 638.831 189.983V205.795ZM632.054 197.235C631.024 197.909 629.756 198.325 628.25 198.483C626.744 198.602 625.238 198.8 623.732 199.078C623.019 199.197 622.326 199.375 621.652 199.613C620.978 199.811 620.384 200.108 619.869 200.504C619.353 200.861 618.937 201.356 618.62 201.991C618.343 202.585 618.204 203.318 618.204 204.19C618.204 204.943 618.422 205.577 618.858 206.092C619.294 206.607 619.809 207.023 620.404 207.34C621.038 207.618 621.711 207.816 622.425 207.935C623.178 208.054 623.851 208.113 624.446 208.113C625.199 208.113 626.011 208.014 626.883 207.816C627.755 207.618 628.567 207.281 629.32 206.805C630.113 206.33 630.766 205.735 631.282 205.022C631.797 204.269 632.054 203.358 632.054 202.288V197.235Z" fill="black"/>
</svg>
